HIERARCHY
ROOT hip
{
  OFFSET 0 0 0
  CHANNELS 6 Xposition Yposition Zposition Zrotation Yrotation Xrotation
  JOINT abdomen
  {
    OFFSET 0 20.6881 -0.73152
    CHANNELS 3 Zrotation Xrotation Yrotation
    JOINT chest
    {
      OFFSET 0 11.7043 -0.48768
      CHANNELS 3 Zrotation Xrotation Yrotation
      JOINT neck
      {
        OFFSET 0 22.1894 -2.19456
        CHANNELS 3 Zrotation Xrotation Yrotation
        JOINT head
        {
          OFFSET -0.24384 7.07133 1.2192
          CHANNELS 3 Zrotation Xrotation Yrotation
          JOINT leftEye
          {
            OFFSET 4.14528 8.04674 8.04672
            CHANNELS 3 Zrotation Xrotation Yrotation
            End Site
            {
              OFFSET 1 0 0
            }
          }
          JOINT rightEye
          {
            OFFSET -3.6576 8.04674 8.04672
            CHANNELS 3 Zrotation Xrotation Yrotation
            End Site
            {
              OFFSET 1 0 0
            }
          }
        }
      }
      JOINT rCollar
      {
        OFFSET -2.68224 19.2634 -4.8768
        CHANNELS 3 Zrotation Xrotation Yrotation
        JOINT rShldr
        {
          OFFSET -8.77824 -1.95073 1.46304
          CHANNELS 3 Zrotation Xrotation Yrotation
          JOINT rForeArm
          {
            OFFSET -28.1742 -1.7115 0.48768
            CHANNELS 3 Zrotation Xrotation Yrotation
            JOINT rHand
            {
              OFFSET -22.5879 0.773209 7.07136
              CHANNELS 3 Zrotation Xrotation Yrotation
              JOINT rThumb1
              {
                OFFSET -1.2192 -0.487915 3.41376
                CHANNELS 3 Zrotation Xrotation Yrotation
                JOINT rThumb2
                {
                  OFFSET -3.37035 -0.52449 3.41376
                  CHANNELS 3 Zrotation Xrotation Yrotation
                  End Site
                  {
                    OFFSET -1.78271 -1.18214 1.43049
                  }
                }
              }
              JOINT rIndex1
              {
                OFFSET -7.75947 0.938293 5.60832
                CHANNELS 3 Zrotation Xrotation Yrotation
                JOINT rIndex2
                {
                  OFFSET -2.54057 -0.884171 1.56538
                  CHANNELS 3 Zrotation Xrotation Yrotation
                  End Site
                  {
                    OFFSET -1.62519 -0.234802 1.16502
                  }
                }
              }
              JOINT rMid1
              {
                OFFSET -8.24714 1.18213 3.41376
                CHANNELS 3 Zrotation Xrotation Yrotation
                JOINT rMid2
                {
                  OFFSET -3.10165 -0.590103 1.0647
                  CHANNELS 3 Zrotation Xrotation Yrotation
                  End Site
                  {
                    OFFSET -2.48547 -0.328903 0.83742
                  }
                }
              }
              JOINT rRing1
              {
                OFFSET -8.82822 0.546677 1.51678
                CHANNELS 3 Zrotation Xrotation Yrotation
                JOINT rRing2
                {
                  OFFSET -2.60934 -0.819778 -0.0198488
                  CHANNELS 3 Zrotation Xrotation Yrotation
                  End Site
                  {
                    OFFSET -2.33842 -0.294052 0.168128
                  }
                }
              }
              JOINT rPinky1
              {
                OFFSET -8.27202 -0.0477905 -0.4584
                CHANNELS 3 Zrotation Xrotation Yrotation
                JOINT rPinky2
                {
                  OFFSET -1.82734 -0.647385 -0.700984
                  CHANNELS 3 Zrotation Xrotation Yrotation
                  End Site
                  {
                    OFFSET -1.69225 -0.51767 -0.607171
                  }
                }
              }
            }
          }
        }
      }
      JOINT lCollar
      {
        OFFSET 2.68224 19.2634 -4.8768
        CHANNELS 3 Zrotation Xrotation Yrotation
        JOINT lShldr
        {
          OFFSET 8.77824 -1.95073 1.46304
          CHANNELS 3 Zrotation Xrotation Yrotation
          JOINT lForeArm
          {
            OFFSET 28.1742 -1.7115 0.48768
            CHANNELS 3 Zrotation Xrotation Yrotation
            JOINT lHand
            {
              OFFSET 22.5879 0.773209 7.07136
              CHANNELS 3 Zrotation Xrotation Yrotation
              JOINT lThumb1
              {
                OFFSET 1.2192 -0.487915 3.41376
                CHANNELS 3 Zrotation Xrotation Yrotation
                JOINT lThumb2
                {
                  OFFSET 3.37035 -0.52449 3.41376
                  CHANNELS 3 Zrotation Xrotation Yrotation
                  End Site
                  {
                    OFFSET 1.78271 -1.18214 1.43049
                  }
                }
              }
              JOINT lIndex1
              {
                OFFSET 7.75947 0.938293 5.60832
                CHANNELS 3 Zrotation Xrotation Yrotation
                JOINT lIndex2
                {
                  OFFSET 2.54057 -0.884171 1.56538
                  CHANNELS 3 Zrotation Xrotation Yrotation
                  End Site
                  {
                    OFFSET 1.62519 -0.234802 1.16502
                  }
                }
              }
              JOINT lMid1
              {
                OFFSET 8.24714 1.18213 3.41376
                CHANNELS 3 Zrotation Xrotation Yrotation
                JOINT lMid2
                {
                  OFFSET 3.10165 -0.590103 1.0647
                  CHANNELS 3 Zrotation Xrotation Yrotation
                  End Site
                  {
                    OFFSET 2.48547 -0.328903 0.83742
                  }
                }
              }
              JOINT lRing1
              {
                OFFSET 8.82822 0.546677 1.51678
                CHANNELS 3 Zrotation Xrotation Yrotation
                JOINT lRing2
                {
                  OFFSET 2.60934 -0.819778 -0.0198488
                  CHANNELS 3 Zrotation Xrotation Yrotation
                  End Site
                  {
                    OFFSET 2.33842 -0.294052 0.168128
                  }
                }
              }
              JOINT lPinky1
              {
                OFFSET 8.27202 -0.0477905 -0.4584
                CHANNELS 3 Zrotation Xrotation Yrotation
                JOINT lPinky2
                {
                  OFFSET 1.82734 -0.647385 -0.700984
                  CHANNELS 3 Zrotation Xrotation Yrotation
                  End Site
                  {
                    OFFSET 1.69225 -0.51767 -0.607171
                  }
                }
              }
            }
          }
        }
      }
    }
  }
  JOINT rButtock
  {
    OFFSET -8.77824 4.35084 1.2192
    CHANNELS 3 Zrotation Xrotation Yrotation
    JOINT rThigh
    {
      OFFSET 0 -1.70687 -2.19456
      CHANNELS 3 Zrotation Xrotation Yrotation
      JOINT rShin
      {
        OFFSET 0 -36.8199 0.73152
        CHANNELS 3 Zrotation Xrotation Yrotation
        JOINT rFoot
        {
          OFFSET 0.73152 -45.1104 -5.12064
          CHANNELS 3 Zrotation Xrotation Yrotation
          End Site
          {
            OFFSET -1.1221 -3.69964 12.103
          }
        }
      }
    }
  }
  JOINT lButtock
  {
    OFFSET 8.77824 4.35084 1.2192
    CHANNELS 3 Zrotation Xrotation Yrotation
    JOINT lThigh
    {
      OFFSET 0 -1.70687 -2.19456
      CHANNELS 3 Zrotation Xrotation Yrotation
      JOINT lShin
      {
        OFFSET 0 -36.8199 0.73152
        CHANNELS 3 Zrotation Xrotation Yrotation
        JOINT lFoot
        {
          OFFSET -0.73152 -45.1104 -5.12064
          CHANNELS 3 Zrotation Xrotation Yrotation
          End Site
          {
            OFFSET 1.1221 -3.69964 12.103
          }
        }
      }
    }
  }
}
MOTION
Frames:	4
Frame Time:	0.03333
1.776822315447001 39.88055590326108 -6.09627101880717 -3.5620079040527344 54.055702209472656 3.5340118408203125 -3.425569772720337 16.846298217773438 2.618299961090088 5.3707098960876465 -8.52988052368164 0.8524999022483826 -9.492278099060059 23.276199340820312 -15.757499694824219 17.266700744628906 -33.43629837036133 -27.13159942626953 -0.0 0.0 -0.0 -0.0 0.0 -0.0 -2.417221425191768e-13 2.7988879660115207e-13 7.251664546625847e-13 49.19769287109375 5.110140323638916 25.713096618652344 -22.616796493530273 -16.712299346923828 45.49079895019531 -1.2467797994613647 29.989999771118164 4.652289390563965 -2.4290784939040577e-09 -3.844336404768001e-09 -2.977291524430825e-09 -4.2624646034994385e-09 -6.8849081991118055e-09 -5.074441311592182e-09 -2.429065837361577e-09 -3.844310647593829e-09 -2.9773170595603915e-09 7.7309088706970215 5.474880218505859 0.41731396317481995 -2.4290784939040577e-09 -3.844336404768001e-09 -2.9772788678883444e-09 2.9055399894714355 0.9651829600334167 0.10290198773145676 -2.429065837361577e-09 -3.844336404768001e-09 -2.9772788678883444e-09 10.27859878540039 0.73180091381073 0.025912299752235413 -2.4290784939040577e-09 -3.844336404768001e-09 -2.9772788678883444e-09 2.2216696739196777 -0.7334870100021362 -0.2089199721813202 -2.417221425191768e-13 2.7988879660115207e-13 7.18805332096395e-13 -44.11540222167969 47.666099548339844 -42.16460037231445 26.59959602355957 -45.009395599365234 -93.48009490966797 1.9126698970794678 -36.0546989440918 5.872439861297607 1.7075761638007947e-10 1.189743636942353e-09 -6.793982598729542e-10 3.076486843056614e-10 2.004703514302264e-09 -1.157441920085489e-09 1.7075761638007947e-10 1.189743636942353e-09 -6.793918760905626e-10 -7.7309088706970215 5.474880218505859 -0.41731396317481995 1.7075761638007947e-10 1.1897564045071363e-09 -6.793982598729542e-10 -2.9055399894714355 0.9651829600334167 -0.10290198773145676 1.707448904486597e-10 1.189743636942353e-09 -6.793982598729542e-10 -10.27859878540039 0.73180091381073 -0.025912299752235413 1.7075761638007947e-10 1.189743636942353e-09 -6.793982598729542e-10 -2.2216696739196777 -0.7334870100021362 0.2089199721813202 -0.0 0.0 -0.0 -21.95130157470703 -25.152997970581055 -1.4918200969696045 -1.3195199966430664 62.96239471435547 1.6156399250030518 -1.3432098627090454 5.508430004119873 -15.10779857635498 -0.0 0.0 -0.0 14.178998947143555 -57.450103759765625 7.075780391693115 2.0338799953460693 69.38650512695312 -2.237489700317383 5.409739017486572 -9.135249137878418 18.136098861694336
2.1495027029267404 40.0833817857592 -6.384468796443022 -1.5449988842010498 51.25689697265625 5.0309977531433105 -5.860210418701172 17.474699020385742 3.3881800174713135 5.566978931427002 -8.63927936553955 0.9858447909355164 -9.437138557434082 23.179101943969727 -15.444897651672363 17.398897171020508 -33.67659378051758 -26.447799682617188 -0.0 0.0 -0.0 -0.0 0.0 -0.0 -2.417221425191768e-13 1.2722218027325094e-13 6.615553374209049e-13 48.102901458740234 8.147579193115234 26.629398345947266 -22.134998321533203 -15.961799621582031 44.155696868896484 -1.4115196466445923 31.63399887084961 4.968429088592529 -7.900370357916131e-10 -1.0596716837341091e-09 -1.2954716188673387e-09 -1.3909836615866311e-09 -1.9331283240831e-09 -2.211910210547785e-09 -7.900370357916131e-10 -1.0596716837341091e-09 -1.2954971539969051e-09 7.7309088706970215 5.474880218505859 0.41731396317481995 -7.900370357916131e-10 -1.0596844512988923e-09 -1.2954716188673387e-09 2.9055399894714355 0.9651829600334167 0.10290198773145676 -7.900370357916131e-10 -1.0596844512988923e-09 -1.2954716188673387e-09 10.27859878540039 0.73180091381073 0.025912299752235413 -7.900497478452451e-10 -1.0596716837341091e-09 -1.295458962324858e-09 2.2216696739196777 -0.7334870100021362 -0.2089199721813202 -2.417221425191768e-13 1.2722218027325094e-13 6.615553374209049e-13 -40.7122917175293 43.403499603271484 -46.33649444580078 26.30470085144043 -45.65949630737305 -94.82688903808594 1.77180016040802 -34.92120361328125 5.63053035736084 3.585121088889309e-10 -1.46979789450441e-10 -1.6437741445773923e-10 6.19521156597358e-10 -2.8864169387965433e-10 -2.6542362752124404e-10 3.585121088889309e-10 -1.4699250150407295e-10 -1.6436470240410728e-10 -7.7309088706970215 5.474880218505859 -0.41731396317481995 3.585121088889309e-10 -1.4700522743549271e-10 -1.6437105843092326e-10 -2.9055399894714355 0.9651829600334167 -0.10290198773145676 3.5849936907972335e-10 -1.46979789450441e-10 -1.6437105843092326e-10 -10.27859878540039 0.73180091381073 -0.025912299752235413 3.585121088889309e-10 -1.46979789450441e-10 -1.6437741445773923e-10 -2.2216696739196777 -0.7334870100021362 0.2089199721813202 -0.0 0.0 -0.0 -23.735702514648438 -31.0154972076416 -4.364109992980957 -1.9981600046157837 69.06560516357422 2.17999005317688 -1.2108596563339233 6.1285400390625 -12.665999412536621 -0.0 0.0 -0.0 8.12492847442627 -55.946197509765625 1.37788987159729 1.8875597715377808 68.5206069946289 -2.173689603805542 5.786190032958984 -10.140899658203125 18.78260040283203
2.60041476981891 40.23584526841223 -6.631986554351659 0.36800074577331543 48.400997161865234 6.035991668701172 -8.477760314941406 18.15730094909668 4.307830333709717 5.747239112854004 -8.737360000610352 1.1546200513839722 -9.353639602661133 23.087400436401367 -15.165998458862305 17.59939956665039 -33.887699127197266 -25.81119728088379 -0.0 0.0 -0.0 -0.0 0.0 -0.0 -1.6538883435522622e-13 -1.2722218027325094e-14 3.5622210476510263e-13 47.406394958496094 10.80150032043457 27.47029685974121 -21.702396392822266 -15.316699981689453 42.99249267578125 -1.5117100477218628 32.62669372558594 5.161989688873291 1.0404357375648488e-09 1.9605446155424033e-09 6.851105238681043e-10 1.812852423732636e-09 3.441843476892359e-09 1.1609087025021836e-09 1.0404357375648488e-09 1.9605319589999226e-09 6.850978118144724e-10 7.7309088706970215 5.474880218505859 0.41731396317481995 1.0404357375648488e-09 1.9605319589999226e-09 6.851105238681043e-10 2.9055399894714355 0.9651829600334167 0.10290198773145676 1.0404483941073295e-09 1.9605319589999226e-09 6.851105238681043e-10 10.27859878540039 0.73180091381073 0.025912299752235413 1.0404357375648488e-09 1.9605446155424033e-09 6.851169076504959e-10 2.2216696739196777 -0.7334870100021362 -0.2089199721813202 -1.6538883435522622e-13 -1.2722218027325094e-14 3.5622210476510263e-13 -38.21229553222656 38.83589553833008 -49.63679885864258 26.013301849365234 -46.24699783325195 -96.07329559326172 1.635240077972412 -33.746498107910156 5.387659549713135 5.778812983692205e-10 -1.7135046714855662e-09 4.821847920943867e-10 9.848142301649432e-10 -2.9676736623684974e-09 8.506138571284794e-10 5.778940104228525e-10 -1.7135046714855662e-09 4.821975041480187e-10 -7.7309088706970215 5.474880218505859 -0.41731396317481995 5.778812983692205e-10 -1.713517328028047e-09 4.821847920943867e-10 -2.9055399894714355 0.9651829600334167 -0.10290198773145676 5.778812983692205e-10 -1.7135046714855662e-09 4.821847920943867e-10 -10.27859878540039 0.73180091381073 -0.025912299752235413 5.778812983692205e-10 -1.7135046714855662e-09 4.821720800407547e-10 -2.2216696739196777 -0.7334870100021362 0.2089199721813202 -0.0 0.0 -0.0 -25.94329833984375 -36.4425048828125 -8.558409690856934 -3.176729440689087 74.90449523925781 3.2846295833587646 -1.2914197444915771 5.69865083694458 -10.271499633789062 -0.0 0.0 -0.0 2.7216899394989014 -54.050296783447266 -3.528059482574463 1.7710000276565552 67.85029602050781 -2.152009963989258 6.17427921295166 -11.239599227905273 19.254798889160156
3.1068521658776107 40.333250596165776 -6.821062625720303 2.030987024307251 45.556400299072266 6.671992778778076 -10.96519947052002 18.79559898376465 5.2650299072265625 5.76138973236084 -8.824610710144043 1.3273102045059204 -9.277860641479492 22.881999969482422 -14.906198501586914 17.823598861694336 -33.95759963989258 -25.20829963684082 -0.0 0.0 -0.0 -0.0 0.0 -0.0 -1.1449996224592585e-13 -1.1449996224592585e-13 5.470553480699247e-13 47.47279739379883 12.727399826049805 28.07959747314453 -21.340896606445312 -14.79740047454834 42.045997619628906 -1.618260145187378 33.592098236083984 5.356449604034424 -3.2725361309715595e-10 1.2296914597698105e-09 -1.7970515076015658e-09 -6.145721709316376e-10 1.9799588635294185e-09 -3.0848197329902405e-09 -3.27240901043524e-10 1.2296914597698105e-09 -1.797070492415287e-09 7.7309088706970215 5.474880218505859 0.41731396317481995 -3.2725361309715595e-10 1.2296786922050273e-09 -1.7970515076015658e-09 2.9055399894714355 0.9651829600334167 0.10290198773145676 -3.27240901043524e-10 1.2296786922050273e-09 -1.7970515076015658e-09 10.27859878540039 0.73180091381073 0.025912299752235413 -3.2725361309715595e-10 1.2296914597698105e-09 -1.7970515076015658e-09 2.2216696739196777 -0.7334870100021362 -0.2089199721813202 -1.1449996224592585e-13 -1.1449996224592585e-13 5.470553480699247e-13 -36.589698791503906 34.10919952392578 -52.210899353027344 25.74439811706543 -46.74899673461914 -97.16259765625 1.5266400575637817 -32.76270294189453 5.189260005950928 1.2322231013328633e-09 -2.815057964511425e-09 8.126443962197527e-10 2.104712848449708e-09 -4.8768842297874926e-09 1.4394108127646632e-09 1.2322231013328633e-09 -2.8150450859243392e-09 8.126698203270166e-10 -7.7309088706970215 5.474880218505859 -0.41731396317481995 1.2322231013328633e-09 -2.8150706210539056e-09 8.126443962197527e-10 -2.9055399894714355 0.9651829600334167 -0.10290198773145676 1.2322104447903826e-09 -2.815057964511425e-09 8.126507800021443e-10 -10.27859878540039 0.73180091381073 -0.025912299752235413 1.2322231013328633e-09 -2.815057964511425e-09 8.126443962197527e-10 -2.2216696739196777 -0.7334870100021362 0.2089199721813202 -0.0 0.0 -0.0 -28.64430046081543 -41.10399627685547 -14.466798782348633 -5.338028907775879 79.99609375 5.387109279632568 -1.2810299396514893 5.850279808044434 -9.329818725585938 -0.0 0.0 -0.0 -2.0956101417541504 -52.0276985168457 -7.6561994552612305 1.6873900890350342 67.40919494628906 -2.1641898155212402 6.5455002784729 -12.26609992980957 19.5762996673584
